<?xml version="1.0" encoding="UTF-8"?>
<svg width="2500" height="1309" preserveAspectRatio="xMinYMin meet" version="1.1" viewBox="0 0 256 134" xmlns="http://www.w3.org/2000/svg" xmlns:cc="http://creativecommons.org/ns#" xmlns:dc="http://purl.org/dc/elements/1.1/" xmlns:rdf="http://www.w3.org/1999/02/22-rdf-syntax-ns#">
<metadata>
<rdf:RDF>
<cc:Work rdf:about="">
<dc:format>image/svg+xml</dc:format>
<dc:type rdf:resource="http://purl.org/dc/dcmitype/StillImage"/>
<dc:title/>
</cc:Work>
</rdf:RDF>
</metadata>
<g fill-rule="evenodd">
<ellipse cx="128" cy="66.63" rx="128" ry="66.63" fill="#8993BE"/>
<path d="M35.945 106.082l14.028-71.014H82.41c14.027.877 21.041 7.89 21.041 20.165 0 21.041-16.657 33.315-31.562 32.438H56.11l-3.507 18.411H35.945zm23.671-31.561L64 48.219h11.397c6.137 0 10.52 2.63 10.52 7.89-.876 14.905-7.89 17.535-15.78 18.412h-10.52zM100.192 87.671l14.027-71.013h16.658l-3.507 18.41h15.78c14.028.877 19.288 7.89 17.535 16.658l-6.137 35.945h-17.534l6.137-32.438c.876-4.384.876-7.014-5.26-7.014H124.74l-7.89 39.452h-16.658zM153.425 106.082l14.027-71.014h32.438c14.028.877 21.042 7.89 21.042 20.165 0 21.041-16.658 33.315-31.562 32.438h-15.781l-3.507 18.411h-16.657zm23.67-31.561l4.384-26.302h11.398c6.137 0 10.52 2.63 10.52 7.89-.876 14.905-7.89 17.535-15.78 18.412h-10.521z" fill="#232531"/>
</g>
<g transform="scale(1.0872 .9198)" fill="#232531" aria-label="@">
<path d="m33.447 79.46h-11.064v-1.6375q-1.3016 0.83976-2.3723 1.3016-1.0707 0.44088-2.8552 0.44088-2.9602 0-4.7657-2.0574-1.8055-2.0784-1.8055-5.7314 0-5.4795 3.1071-9.4054t7.4109-3.9259q1.3856 0 2.4983 0.44088 1.1337 0.44088 1.8895 1.1547l0.25193-1.3016h4.8706l-3.3381 17.131h3.7999q1.4066-2.3303 2.0784-4.9546 0.67181-2.6453 0.67181-5.3325 0-5.2485-2.9182-8.2507-2.8972-3.0232-8.3557-3.0232-3.0022 0-5.8574 1.3016-2.8342 1.2806-5.0806 3.632-2.2044 2.2884-3.527 5.4585-1.3016 3.1491-1.3016 6.7601 0 2.9602 0.90275 5.2065 0.90275 2.2254 2.4143 3.674 1.5746 1.5116 3.653 2.2674 2.0994 0.77678 4.5557 0.77678 1.8055 0 4.2198-0.3569 2.4353-0.3569 4.0519-0.81877l-0.58784 4.0729q-2.0364 0.44088-3.9889 0.67181-1.9525 0.23094-4.2408 0.23094-6.8861 0-11.169-4.1358-4.2618-4.1148-4.2618-11.148 0-4.2198 1.5746-8.0617 1.5956-3.8629 4.3878-6.8441 2.7502-2.9392 6.5712-4.7027 3.8419-1.7845 8.1877-1.7845 6.8861 0 10.98 4.1778 4.1148 4.1778 4.1148 10.791 0 3.737-1.3646 7.5789-1.3436 3.8209-3.3381 6.4032zm-10.749-5.5634 2.0364-10.476q-0.65082-0.41988-1.4696-0.67181-0.81877-0.27292-1.8895-0.27292-2.3094 0-3.9259 2.5823-1.5956 2.5613-1.5956 6.3192 0 2.2464 0.75579 3.2331 0.75579 0.96573 2.3933 0.96573 0.96573 0 1.8685-0.44088 0.90275-0.44088 1.8265-1.2387z" fill="#232531" stroke-width=".10749"/>
</g>
</svg>
